<svg xmlns="http://www.w3.org/2000/svg" viewBox="0 0 200 44" fill="none">
  <!-- Icon -->
  <circle cx="22" cy="22" r="22" fill="#F05A28"/>
  <path d="M11.4 31.7L16.2 28.9V34.3L37.6 22L16.2 9.7V15.1L11.4 12.3V31.7Z" fill="white"/>
  <path d="M18.5 19L23.7 22L18.5 25V19ZM18.5 27.6L18.5 27.6L28.2 22L18.5 16.4V13.5L33.2 22L18.5 30.5V27.6ZM13.6 16.2L16.2 17.7V26.3L13.6 27.8V16.2Z" fill="#130F25"/>
  
  <!-- Text -->
  <g fill="currentColor">
    <path d="M52.5 13.2h6.8c3.8 0 6.2 2.1 6.2 5.4 0 3.4-2.4 5.4-6.2 5.4h-3.3v6.5h-3.5V13.2zm6.5 8.2c1.9 0 3-.9 3-2.8 0-1.9-1.1-2.8-3-2.8h-3v5.6h3z"/>
    <path d="M68.2 13.2h3.5v11.3h6.8v2.9H68.2V13.2z"/>
    <path d="M81 13.2h3.5v7.4c0 2.5 1.2 3.5 3.2 3.5 2 0 3.2-1 3.2-3.5v-7.4h3.5v7.2c0 4.4-2.5 6.6-6.7 6.6s-6.7-2.2-6.7-6.6v-7.2z"/>
    <path d="M98.2 13.2h6.8c3.6 0 5.7 1.8 5.7 4.7 0 2.1-1.1 3.5-3 4.1l3.5 8.4h-3.8l-3.1-7.7h-2.6v7.7h-3.5V13.2zm6.4 7.7c1.7 0 2.7-.8 2.7-2.2 0-1.4-1-2.2-2.7-2.2h-2.9v4.4h2.9z"/>
    <path d="M117.8 13.2h3.5l6.4 17.2h-3.7l-1.2-3.4h-6.6l-1.2 3.4h-3.6l6.4-17.2zm3.8 11.3l-2.1-5.8-2.1 5.8h4.2z"/>
    <path d="M130.2 13.2h3.5v14.3h7.5v2.9h-11V13.2z"/>
    <path d="M143.5 27.2l2.1-2.4c1.4 1.4 3.1 2.2 5.2 2.2 2 0 3.1-.8 3.1-2 0-3.1-9.8-1.3-9.8-7.8 0-2.9 2.4-4.8 6.1-4.8 2.6 0 4.8.8 6.5 2.4l-2 2.4c-1.3-1.2-2.8-1.8-4.5-1.8-1.8 0-2.8.7-2.8 1.9 0 3 9.8 1.2 9.8 7.8 0 3-2.4 4.9-6.5 4.9-3.1 0-5.5-1.1-7.2-2.8z"/>
    <path d="M159.2 13.2h3.5v17.2h-3.5V13.2z"/>
    <path d="M166.4 21.8c0-5.2 3.8-9 9.1-9 3.2 0 5.5 1.3 7 3.4l-2.7 1.9c-1-1.4-2.3-2.3-4.3-2.3-3.3 0-5.5 2.5-5.5 6s2.2 6 5.6 6c1.5 0 2.8-.5 3.7-1.3v-2.3h-4.2v-2.8h7.7v6.5c-1.7 1.7-4.2 2.9-7.3 2.9-5.4 0-9.1-3.8-9.1-9z"/>
    <path d="M186.4 13.2h3.5v7.4h7.1v-7.4h3.5v17.2h-3.5v-6.9h-7.1v6.9h-3.5V13.2z"/>
  </g>
</svg>
