<svg xmlns="http://www.w3.org/2000/svg" width="1200" height="1500" viewBox="0 0 1200 1500"><g transform="translate(600, 470)"><g fill="#0f172a"><path d="M0 -60 C -42 -60 -60 -30 -60 -2 C -60 18 -48 30 -36 36 L -36 54 C -36 60 -30 64 -22 64 L 22 64 C 30 64 36 60 36 54 L 36 36 C 48 30 60 18 60 -2 C 60 -30 42 -60 0 -60 Z"/><circle cx="-24" cy="-4" r="15" fill="#fff"/><circle cx="24" cy="-4" r="15" fill="#fff"/><path d="M0 16 l -9 22 l 18 0 Z" fill="#fff"/></g></g><text x="140" y="655.4" font-family="monospace" font-size="51.6" fill="#94a3b8">~/devops $</text><text x="140" y="775.8" font-family="monospace" font-weight="700" font-size="86" fill="#0f172a">rm -rf /regret</text><rect x="876.4" y="708.7199999999999" width="47.300000000000004" height="77.4" fill="#f59e0b"/><g opacity="0.65">
    <rect x="484" y="1412" width="22" height="22" rx="5" fill="#f59e0b"/>
    <text x="516" y="1430" font-family="monospace" font-size="26" fill="#94a3b8">devops-daily.com</text>
  </g></svg>