<?xml version="1.0" encoding="UTF-8"?>
<svg width="1200" height="630" xmlns="http://www.w3.org/2000/svg">
  <defs>
    <linearGradient id="bgGradient" x1="0%" y1="0%" x2="100%" y2="100%">
      <stop offset="0%" style="stop-color:#0f172a;stop-opacity:1" />
      <stop offset="55%" style="stop-color:#172337;stop-opacity:1" />
      <stop offset="100%" style="stop-color:#0f172a;stop-opacity:1" />
    </linearGradient>
    <linearGradient id="titleGradient" x1="0%" y1="0%" x2="100%" y2="0%">
      <stop offset="0%" style="stop-color:#38bdf8;stop-opacity:1" />
      <stop offset="100%" style="stop-color:#22c55e;stop-opacity:1" />
    </linearGradient>
    <filter id="softGlow">
      <feGaussianBlur stdDeviation="4" result="coloredBlur"/>
      <feMerge>
        <feMergeNode in="coloredBlur"/>
        <feMergeNode in="SourceGraphic"/>
      </feMerge>
    </filter>
  </defs>

  <rect width="1200" height="630" fill="url(#bgGradient)"/>

  <g opacity="0.055">
    <line x1="0" y1="157.5" x2="1200" y2="157.5" stroke="#94a3b8" stroke-width="1"/>
    <line x1="0" y1="315" x2="1200" y2="315" stroke="#94a3b8" stroke-width="1"/>
    <line x1="0" y1="472.5" x2="1200" y2="472.5" stroke="#94a3b8" stroke-width="1"/>
    <line x1="300" y1="0" x2="300" y2="630" stroke="#94a3b8" stroke-width="1"/>
    <line x1="600" y1="0" x2="600" y2="630" stroke="#94a3b8" stroke-width="1"/>
    <line x1="900" y1="0" x2="900" y2="630" stroke="#94a3b8" stroke-width="1"/>
  </g>

  <path d="M-80 620 L560 245 L760 245 L140 630 Z" fill="#0b253a" opacity="0.42"/>
  <path d="M370 630 L1200 150 L1200 380 L710 630 Z" fill="#082436" opacity="0.5"/>

  <circle cx="96" cy="148" r="20" fill="#38bdf8" opacity="0.22"/>
  <circle cx="1100" cy="110" r="28" fill="#22c55e" opacity="0.2"/>
  <circle cx="1060" cy="505" r="18" fill="#22c55e" opacity="0.18"/>

  <g transform="translate(92, 158)">
    <rect x="0" y="56" width="160" height="190" rx="12" fill="#1e293b" stroke="#64748b" stroke-width="2"/>
    <rect x="18" y="78" width="124" height="82" rx="5" fill="#0f172a" stroke="#38bdf8" stroke-width="1.7"/>
    <circle cx="34" cy="94" r="3.5" fill="#ef4444"/>
    <circle cx="48" cy="94" r="3.5" fill="#eab308"/>
    <circle cx="62" cy="94" r="3.5" fill="#22c55e"/>
    <text x="80" y="196" font-family="system-ui, -apple-system, sans-serif" font-size="13" fill="#94a3b8" text-anchor="middle">CLIENT</text>
    <text x="80" y="220" font-family="monospace" font-size="12" fill="#38bdf8" text-anchor="middle">driver</text>

    <g transform="translate(370, 34)">
      <path d="M80 0 C124 0 160 15 160 34 L160 210 C160 229 124 244 80 244 C36 244 0 229 0 210 L0 34 C0 15 36 0 80 0 Z" fill="#1e293b" stroke="#22c55e" stroke-width="2"/>
      <ellipse cx="80" cy="34" rx="80" ry="34" fill="#0f172a" stroke="#22c55e" stroke-width="2"/>
      <path d="M0 96 C0 115 36 130 80 130 C124 130 160 115 160 96" fill="none" stroke="#334155" stroke-width="1.6"/>
      <path d="M0 152 C0 171 36 186 80 186 C124 186 160 171 160 152" fill="none" stroke="#334155" stroke-width="1.6"/>
      <circle cx="54" cy="86" r="4.5" fill="#22c55e" filter="url(#softGlow)"/>
      <circle cx="54" cy="142" r="4.5" fill="#38bdf8" filter="url(#softGlow)"/>
      <circle cx="54" cy="198" r="4.5" fill="#94a3b8"/>
      <text x="80" y="278" font-family="system-ui, -apple-system, sans-serif" font-size="13" fill="#94a3b8" text-anchor="middle">POSTGRES</text>
      <text x="80" y="302" font-family="monospace" font-size="12" fill="#22c55e" text-anchor="middle">backend</text>
    </g>

    <g transform="translate(176, 92)" font-family="monospace">
      <line x1="0" y1="0" x2="176" y2="0" stroke="#38bdf8" stroke-width="2.4"/>
      <polygon points="176,-7 200,0 176,7" fill="#38bdf8"/>
      <rect x="58" y="-20" width="84" height="30" rx="15" fill="#1e293b" stroke="#38bdf8" stroke-width="1.6"/>
      <text x="100" y="0" font-size="12" fill="#7dd3fc" text-anchor="middle">STARTUP</text>

      <line x1="200" y1="56" x2="24" y2="56" stroke="#f59e0b" stroke-width="2.4" stroke-dasharray="8 8"/>
      <polygon points="24,49 0,56 24,63" fill="#f59e0b"/>
      <rect x="65" y="36" width="70" height="30" rx="15" fill="#1e293b" stroke="#f59e0b" stroke-width="1.6"/>
      <text x="100" y="56" font-size="12" fill="#fbbf24" text-anchor="middle">SCRAM</text>

      <line x1="0" y1="112" x2="176" y2="112" stroke="#a855f7" stroke-width="2.4"/>
      <polygon points="176,105 200,112 176,119" fill="#a855f7"/>
      <rect x="64" y="92" width="72" height="30" rx="15" fill="#1e293b" stroke="#a855f7" stroke-width="1.6"/>
      <text x="100" y="112" font-size="12" fill="#c084fc" text-anchor="middle">QUERY</text>

      <line x1="200" y1="168" x2="24" y2="168" stroke="#22c55e" stroke-width="2.4"/>
      <polygon points="24,161 0,168 24,175" fill="#22c55e"/>
      <rect x="58" y="148" width="84" height="30" rx="15" fill="#1e293b" stroke="#22c55e" stroke-width="1.6"/>
      <text x="100" y="168" font-size="12" fill="#4ade80" text-anchor="middle">DATAROW</text>

      <line x1="200" y1="224" x2="24" y2="224" stroke="#6366f1" stroke-width="2.4"/>
      <polygon points="24,217 0,224 24,231" fill="#6366f1"/>
      <rect x="66" y="204" width="68" height="30" rx="15" fill="#1e293b" stroke="#6366f1" stroke-width="1.6"/>
      <text x="100" y="224" font-size="12" fill="#a5b4fc" text-anchor="middle">READY</text>
    </g>
  </g>

  <g transform="translate(875, 150)">
    <rect x="-96" y="0" width="192" height="34" rx="17" fill="#0f2f46" opacity="0.8"/>
    <rect x="-96" y="0" width="192" height="34" rx="17" fill="none" stroke="#38bdf8" stroke-width="1.8"/>
    <text x="0" y="22" font-family="system-ui, -apple-system, sans-serif" font-size="14" font-weight="700" fill="#7dd3fc" text-anchor="middle">Interactive Simulator</text>

    <text x="0" y="94" font-family="system-ui, -apple-system, sans-serif" font-size="50" font-weight="800" fill="url(#titleGradient)" text-anchor="middle">Postgres Wire</text>
    <text x="0" y="150" font-family="system-ui, -apple-system, sans-serif" font-size="50" font-weight="800" fill="url(#titleGradient)" text-anchor="middle">Protocol</text>
    <text x="0" y="194" font-family="system-ui, -apple-system, sans-serif" font-size="18" fill="#94a3b8" text-anchor="middle">See what your database driver sends</text>

    <g transform="translate(-205, 235)" font-family="system-ui, -apple-system, sans-serif" font-size="12">
      <rect x="0" y="0" width="98" height="30" rx="15" fill="#1e293b" stroke="#38bdf8" stroke-width="1.5"/>
      <text x="49" y="20" fill="#7dd3fc" text-anchor="middle">Startup</text>
      <rect x="110" y="0" width="76" height="30" rx="15" fill="#1e293b" stroke="#f59e0b" stroke-width="1.5"/>
      <text x="148" y="20" fill="#fbbf24" text-anchor="middle">SCRAM</text>
      <rect x="198" y="0" width="112" height="30" rx="15" fill="#1e293b" stroke="#a855f7" stroke-width="1.5"/>
      <text x="254" y="20" fill="#c084fc" text-anchor="middle">Prepared SQL</text>
      <rect x="322" y="0" width="64" height="30" rx="15" fill="#1e293b" stroke="#22c55e" stroke-width="1.5"/>
      <text x="354" y="20" fill="#4ade80" text-anchor="middle">COPY</text>
    </g>
  </g>
</svg>
