<?xml version="1.0" encoding="UTF-8"?>
<svg width="1200" height="630" xmlns="http://www.w3.org/2000/svg">
  <defs>
    <linearGradient id="bgGradient" x1="0%" y1="0%" x2="100%" y2="100%">
      <stop offset="0%" style="stop-color:#0f172a;stop-opacity:1" />
      <stop offset="52%" style="stop-color:#1e293b;stop-opacity:1" />
      <stop offset="100%" style="stop-color:#0f172a;stop-opacity:1" />
    </linearGradient>
    <linearGradient id="titleGradient" x1="0%" y1="0%" x2="100%" y2="0%">
      <stop offset="0%" style="stop-color:#38bdf8;stop-opacity:1" />
      <stop offset="100%" style="stop-color:#22c55e;stop-opacity:1" />
    </linearGradient>
    <filter id="glow">
      <feGaussianBlur stdDeviation="3" result="coloredBlur"/>
      <feMerge>
        <feMergeNode in="coloredBlur"/>
        <feMergeNode in="SourceGraphic"/>
      </feMerge>
    </filter>
  </defs>

  <rect width="1200" height="630" fill="url(#bgGradient)"/>

  <g opacity="0.08">
    <line x1="0" y1="157.5" x2="1200" y2="157.5" stroke="#94a3b8" stroke-width="1"/>
    <line x1="0" y1="315" x2="1200" y2="315" stroke="#94a3b8" stroke-width="1"/>
    <line x1="0" y1="472.5" x2="1200" y2="472.5" stroke="#94a3b8" stroke-width="1"/>
    <line x1="300" y1="0" x2="300" y2="630" stroke="#94a3b8" stroke-width="1"/>
    <line x1="600" y1="0" x2="600" y2="630" stroke="#94a3b8" stroke-width="1"/>
    <line x1="900" y1="0" x2="900" y2="630" stroke="#94a3b8" stroke-width="1"/>
  </g>

  <g opacity="0.18">
    <path d="M-80 610 L520 270 L760 270 L160 630 Z" fill="#0f2338"/>
    <path d="M360 630 L1200 150 L1200 360 L700 630 Z" fill="#0b2337"/>
  </g>

  <circle cx="100" cy="150" r="20" fill="#38bdf8" opacity="0.12"/>
  <circle cx="100" cy="150" r="16" fill="none" stroke="#38bdf8" stroke-width="1" opacity="0.16" stroke-dasharray="1 2"/>
  <circle cx="150" cy="500" r="15" fill="none" stroke="#94a3b8" stroke-width="1" opacity="0.16" stroke-dasharray="1 2"/>
  <circle cx="1098" cy="100" r="26" fill="#22c55e" opacity="0.08"/>
  <circle cx="1050" cy="500" r="18" fill="#22c55e" opacity="0.08"/>

  <g transform="translate(95, 178)">
    <rect x="0" y="28" width="150" height="176" rx="10" fill="#1e293b" stroke="#64748b" stroke-width="2"/>
    <rect x="16" y="48" width="118" height="76" rx="5" fill="#0f172a" stroke="#38bdf8" stroke-width="1.5"/>
    <circle cx="30" cy="62" r="3" fill="#ef4444"/>
    <circle cx="42" cy="62" r="3" fill="#eab308"/>
    <circle cx="54" cy="62" r="3" fill="#22c55e"/>
    <text x="75" y="157" font-family="system-ui, -apple-system, sans-serif" font-size="12" fill="#94a3b8" text-anchor="middle">CLIENT</text>
    <text x="75" y="178" font-family="monospace" font-size="11" fill="#38bdf8" text-anchor="middle">driver</text>
  </g>

  <g transform="translate(480, 190)">
    <path d="M70 0 C108 0 140 13 140 30 L140 170 C140 187 108 200 70 200 C32 200 0 187 0 170 L0 30 C0 13 32 0 70 0 Z" fill="#1e293b" stroke="#22c55e" stroke-width="2"/>
    <ellipse cx="70" cy="30" rx="70" ry="30" fill="#0f172a" stroke="#22c55e" stroke-width="2"/>
    <path d="M0 82 C0 99 32 112 70 112 C108 112 140 99 140 82" fill="none" stroke="#334155" stroke-width="1.5"/>
    <path d="M0 126 C0 143 32 156 70 156 C108 156 140 143 140 126" fill="none" stroke="#334155" stroke-width="1.5"/>
    <circle cx="46" cy="72" r="4" fill="#22c55e" filter="url(#glow)"/>
    <circle cx="46" cy="116" r="4" fill="#38bdf8" filter="url(#glow)"/>
    <circle cx="46" cy="160" r="4" fill="#94a3b8"/>
    <text x="70" y="226" font-family="system-ui, -apple-system, sans-serif" font-size="12" fill="#94a3b8" text-anchor="middle">POSTGRES</text>
    <text x="70" y="246" font-family="monospace" font-size="11" fill="#22c55e" text-anchor="middle">backend</text>
  </g>

  <g transform="translate(260, 220)" font-family="monospace">
    <line x1="0" y1="26" x2="188" y2="26" stroke="#38bdf8" stroke-width="2"/>
    <polygon points="188,20 208,26 188,32" fill="#38bdf8"/>
    <rect x="56" y="0" width="88" height="28" rx="14" fill="#1e293b" stroke="#38bdf8" stroke-width="1.5"/>
    <text x="100" y="19" font-size="11" fill="#7dd3fc" text-anchor="middle">STARTUP</text>

    <line x1="208" y1="74" x2="20" y2="74" stroke="#f59e0b" stroke-width="2" stroke-dasharray="7 7"/>
    <polygon points="20,68 0,74 20,80" fill="#f59e0b"/>
    <rect x="65" y="48" width="70" height="28" rx="14" fill="#1e293b" stroke="#f59e0b" stroke-width="1.5"/>
    <text x="100" y="67" font-size="11" fill="#fbbf24" text-anchor="middle">SCRAM</text>

    <line x1="0" y1="122" x2="188" y2="122" stroke="#a855f7" stroke-width="2"/>
    <polygon points="188,116 208,122 188,128" fill="#a855f7"/>
    <rect x="66" y="96" width="68" height="28" rx="14" fill="#1e293b" stroke="#a855f7" stroke-width="1.5"/>
    <text x="100" y="115" font-size="11" fill="#c084fc" text-anchor="middle">QUERY</text>

    <line x1="208" y1="170" x2="20" y2="170" stroke="#22c55e" stroke-width="2"/>
    <polygon points="20,164 0,170 20,176" fill="#22c55e"/>
    <rect x="61" y="144" width="78" height="28" rx="14" fill="#1e293b" stroke="#22c55e" stroke-width="1.5"/>
    <text x="100" y="163" font-size="11" fill="#4ade80" text-anchor="middle">DATAROW</text>

    <line x1="208" y1="218" x2="20" y2="218" stroke="#6366f1" stroke-width="2"/>
    <polygon points="20,212 0,218 20,224" fill="#6366f1"/>
    <rect x="67" y="192" width="66" height="28" rx="14" fill="#1e293b" stroke="#6366f1" stroke-width="1.5"/>
    <text x="100" y="211" font-size="11" fill="#a5b4fc" text-anchor="middle">READY</text>
  </g>

  <g transform="translate(870, 160)">
    <rect x="-92" y="0" width="184" height="32" rx="16" fill="#0f2f46" opacity="0.8"/>
    <rect x="-92" y="0" width="184" height="32" rx="16" fill="none" stroke="#38bdf8" stroke-width="1.8"/>
    <text x="0" y="21" font-family="system-ui, -apple-system, sans-serif" font-size="14" font-weight="700" fill="#7dd3fc" text-anchor="middle">Interactive Simulator</text>

    <text x="0" y="84" font-family="system-ui, -apple-system, sans-serif" font-size="46" font-weight="800" fill="url(#titleGradient)" text-anchor="middle">PostgreSQL Wire</text>
    <text x="0" y="138" font-family="system-ui, -apple-system, sans-serif" font-size="46" font-weight="800" fill="url(#titleGradient)" text-anchor="middle">Protocol</text>
    <text x="0" y="180" font-family="system-ui, -apple-system, sans-serif" font-size="18" fill="#94a3b8" text-anchor="middle">Visualize how drivers talk to Postgres</text>

    <g transform="translate(-190, 220)" font-family="system-ui, -apple-system, sans-serif" font-size="12">
      <rect x="0" y="0" width="98" height="30" rx="15" fill="#1e293b" stroke="#38bdf8" stroke-width="1.5"/>
      <text x="49" y="20" fill="#7dd3fc" text-anchor="middle">Startup</text>
      <rect x="110" y="0" width="76" height="30" rx="15" fill="#1e293b" stroke="#f59e0b" stroke-width="1.5"/>
      <text x="148" y="20" fill="#fbbf24" text-anchor="middle">SCRAM</text>
      <rect x="198" y="0" width="112" height="30" rx="15" fill="#1e293b" stroke="#a855f7" stroke-width="1.5"/>
      <text x="254" y="20" fill="#c084fc" text-anchor="middle">Prepared SQL</text>
      <rect x="322" y="0" width="64" height="30" rx="15" fill="#1e293b" stroke="#22c55e" stroke-width="1.5"/>
      <text x="354" y="20" fill="#4ade80" text-anchor="middle">COPY</text>
    </g>
  </g>
</svg>
