<?xml version="1.0" encoding="UTF-8"?>
<svg width="1200" height="630" xmlns="http://www.w3.org/2000/svg">
  <defs>
    <linearGradient id="adventBg" x1="0%" y1="0%" x2="100%" y2="100%">
      <stop offset="0%" style="stop-color:#0f0f23;stop-opacity:1" />
      <stop offset="50%" style="stop-color:#0a0a1a;stop-opacity:1" />
      <stop offset="100%" style="stop-color:#050510;stop-opacity:1" />
    </linearGradient>
    <pattern id="stars" x="0" y="0" width="100" height="100" patternUnits="userSpaceOnUse">
      <circle cx="20" cy="20" r="1" fill="#ffffff" opacity="0.3"/>
      <circle cx="60" cy="40" r="1.5" fill="#ffffff" opacity="0.4"/>
      <circle cx="80" cy="70" r="1" fill="#ffffff" opacity="0.2"/>
      <circle cx="30" cy="80" r="1" fill="#ffffff" opacity="0.35"/>
    </pattern>
    <linearGradient id="festiveGrad" x1="0%" y1="0%" x2="100%" y2="0%">
      <stop offset="0%" style="stop-color:#ef4444;stop-opacity:1" />
      <stop offset="50%" style="stop-color:#3b82f6;stop-opacity:1" />
      <stop offset="100%" style="stop-color:#10b981;stop-opacity:1" />
    </linearGradient>
    <filter id="glow">
      <feGaussianBlur stdDeviation="4" result="coloredBlur"/>
      <feMerge>
        <feMergeNode in="coloredBlur"/>
        <feMergeNode in="SourceGraphic"/>
      </feMerge>
    </filter>
  </defs>
  <rect width="1200" height="630" fill="url(#adventBg)"/>
  <rect width="1200" height="630" fill="url(#stars)"/>
  <g opacity="0.15">
    <polygon points="150,100 100,200 200,200" fill="#10b981"/>
    <polygon points="150,140 90,250 210,250" fill="#10b981"/>
    <polygon points="150,180 80,300 220,300" fill="#10b981"/>
    <rect x="135" y="300" width="30" height="40" fill="#92400e"/>
    <polygon points="1050,100 1000,200 1100,200" fill="#10b981"/>
    <polygon points="1050,140 990,250 1110,250" fill="#10b981"/>
    <polygon points="1050,180 980,300 1120,300" fill="#10b981"/>
    <rect x="1035" y="300" width="30" height="40" fill="#92400e"/>
  </g>
  <rect x="80" y="60" width="1040" height="3" fill="url(#festiveGrad)" opacity="0.6"/>
  <g>
    <rect x="80" y="90" width="180" height="50" rx="25" fill="url(#festiveGrad)" filter="url(#glow)"/>
    <text x="170" y="123" font-family="'Courier New', monospace" font-size="24" font-weight="bold" fill="#ffffff" text-anchor="middle">DAY 14</text>
 </g>
 <g>
    <rect x="280" y="95" width="200" height="40" rx="20" fill="#1e3a8a" opacity="0.8"/>
    <text x="300" y="122" font-family="Arial, sans-serif" font-size="18" font-weight="600" fill="#60a5fa">KUBERNETES</text>
  </g>
 <g>
    <text x="80" y="230" font-family="'Courier New', monospace" font-size="36" fill="#10b981" opacity="0.6">&gt;</text>
   <text x="120" y="250" font-family="'Courier New', monospace" font-size="52" font-weight="bold" fill="#ffffff">Networking Debugging</text>
 </g>
  <g opacity="0.4">
    <text x="200" y="550" font-size="24" fill="#ffffff" opacity="0.6">❄</text>
    <text x="450" y="580" font-size="20" fill="#ffffff" opacity="0.5">❄</text>
    <text x="750" y="560" font-size="22" fill="#ffffff" opacity="0.7">❄</text>
    <text x="950" y="590" font-size="18" fill="#ffffff" opacity="0.4">❄</text>
  </g>
 <g>
    <text x="80" y="580" font-family="'Courier New', monospace" font-size="20" font-weight="bold" fill="#10b981" opacity="0.8">ADVENT OF DEVOPS</text>
   <text x="1120" y="580" font-family="Arial, sans-serif" font-size="18" font-weight="600" fill="#60a5fa" text-anchor="end" opacity="0.7">DevOps Daily</text>
 </g>
  <g filter="url(#glow)">
    <text x="1150" y="60" font-size="32" fill="#fbbf24">⭐</text>
    <text x="50" y="60" font-size="32" fill="#ef4444">🎄</text>
  </g>
</svg>